<svg width="41" height="42" viewBox="0 0 41 42" fill="none" xmlns="http://www.w3.org/2000/svg">
<path d="M41 21.1225C41 10.0075 32.045 0.997498 21 0.997498C9.95 0.999998 0.994995 10.0075 0.994995 21.125C0.994995 31.1675 8.31 39.4925 17.87 41.0025L17.87 26.94H12.795V21.125H17.875V16.6875C17.875 11.645 20.8625 8.86 25.43 8.86C27.62 8.86 29.9075 9.2525 29.9075 9.2525L29.9075 14.2025L27.385 14.2025C24.9025 14.2025 24.1275 15.755 24.1275 17.3475V21.1225H29.6725L28.7875 26.9375H24.125L24.125 41C33.685 39.49 41 31.165 41 21.1225Z" fill="white"/>
</svg>
