<svg width="143" height="143" viewBox="0 0 143 143" fill="none" xmlns="http://www.w3.org/2000/svg">
<path d="M108.784 72.2145C106.639 69.4889 103.706 67.7094 99.9858 66.8761V66.5525C102.135 65.4081 103.963 63.7541 105.308 61.7386C106.64 59.7385 107.306 57.3144 107.306 54.4662C107.306 51.9433 106.85 49.7749 105.937 47.9611C105.025 46.1473 103.561 44.6635 101.545 43.5099C99.7698 42.5028 97.8262 41.8188 95.807 41.4902C93.8116 41.1634 90.8046 41 86.7858 41H77.8414H61.6483C58.1528 41 55.2406 41.2345 52.9119 41.7035C50.6719 42.1372 48.5366 42.9917 46.6213 44.2207C44.5841 45.5247 42.8976 47.2996 41.7072 49.3925C40.5321 51.4776 39.9437 54.1133 39.9421 57.2997C39.9421 61.6201 40.9901 65.2363 43.0861 68.1482C45.1822 71.0601 48.0704 73.253 51.7508 74.7269L30 100.929H39.9792L59.3188 77.102H70.1521V100.929H70.4838V101H90.0041C93.8232 101 96.9713 100.624 99.4486 99.8725C101.966 99.0979 104.291 97.8077 106.271 96.0856C108.072 94.5392 109.499 92.6128 110.448 90.4481C111.483 88.1604 112 85.5288 112 82.5532C112 78.3814 110.928 74.9352 108.784 72.2145ZM86.5283 47.8189C88.5772 47.8016 90.6256 47.8892 92.6654 48.0812C94.1544 48.2054 95.5945 48.6675 96.874 49.4317C97.8191 50.0039 98.5667 50.8466 99.0178 51.8485C99.4961 53.0147 99.723 54.267 99.6838 55.5251C99.7175 57.0662 99.4735 58.6008 98.9634 60.0572C98.49 61.3248 97.6311 62.4158 96.5051 63.1798C95.3778 63.9711 94.092 64.5136 92.7347 64.7706C90.9262 65.0596 89.0952 65.1875 87.2636 65.1529H77.8414V47.8189H86.5283ZM70.1521 70.462H62.3861C60.2444 70.4939 58.1067 70.2709 56.0188 69.7977C54.2824 69.3961 52.6865 68.5413 51.3968 67.3222C50.2563 66.2323 49.3744 64.9054 48.8147 63.4372C48.2585 61.9763 47.9804 60.1184 47.9804 57.8634C47.9504 56.2982 48.2471 54.7436 48.8519 53.2971C49.4723 51.9255 50.4766 50.7585 51.7459 49.9342C52.9374 49.1242 54.2864 48.5691 55.7068 48.3042C57.4861 47.975 59.2938 47.8207 61.1037 47.8434H70.1521V70.462ZM103.424 88.0607C102.719 89.48 101.679 90.7101 100.392 91.6467C99.0847 92.6124 97.4087 93.2766 95.3638 93.6394C93.319 94.0022 90.694 94.1852 87.4889 94.1884H77.834V71.8836H89.2936C91.3492 71.8652 93.4042 71.9658 95.448 72.1851C96.9579 72.3328 98.4226 72.7787 99.7556 73.4964C101.505 74.4899 102.713 75.6983 103.38 77.1216C104.047 78.5448 104.377 80.4648 104.37 82.8816C104.38 84.9961 104.065 86.7225 103.424 88.0607Z" fill="white"/>
<circle cx="71.5" cy="71.5" r="67.5" stroke="#DDDDDD" stroke-width="8"/>
</svg>
