<svg width="38" height="40" viewBox="0 0 38 40" fill="none" xmlns="http://www.w3.org/2000/svg">
<path d="M15 0.693305C15.244 0.989836 15.3935 1.35273 15.4292 1.73511C15.4648 2.11749 15.385 2.50177 15.2 2.8383C13.7546 5.49199 12.9998 8.46654 13.005 11.4883C13.005 21.5408 21.2 29.6808 31.3 29.6808C32.6175 29.6808 33.9 29.5433 35.1325 29.2808C35.5103 29.199 35.9039 29.2303 36.264 29.3708C36.6241 29.5113 36.9349 29.7548 37.1575 30.0708C37.3925 30.3994 37.5123 30.7965 37.4983 31.2002C37.4842 31.604 37.3372 31.9918 37.08 32.3033C35.1192 34.7119 32.6456 36.6525 29.8396 37.9838C27.0335 39.315 23.9658 40.0032 20.86 39.9983C9.335 39.9983 0 30.7133 0 19.2733C0 10.6633 5.285 3.2783 12.81 0.148305C13.1848 -0.0101155 13.601 -0.0426306 13.9959 0.055644C14.3908 0.153919 14.7431 0.377676 15 0.693305V0.693305Z" fill="white"/>
</svg>
