<svg width="54" height="54" viewBox="0 0 54 54" fill="none" xmlns="http://www.w3.org/2000/svg">
<path d="M27 9.63001C27.3978 9.63001 27.7794 9.47197 28.0607 9.19067C28.342 8.90936 28.5 8.52783 28.5 8.13001V2.86501C28.5 2.46718 28.342 2.08565 28.0607 1.80435C27.7794 1.52304 27.3978 1.36501 27 1.36501C26.6022 1.36501 26.2206 1.52304 25.9393 1.80435C25.658 2.08565 25.5 2.46718 25.5 2.86501V8.13001C25.5 8.52783 25.658 8.90936 25.9393 9.19067C26.2206 9.47197 26.6022 9.63001 27 9.63001Z" fill="white"/>
<path d="M27 44.37C26.6022 44.37 26.2206 44.528 25.9393 44.8093C25.658 45.0906 25.5 45.4722 25.5 45.87V51.135C25.5 51.5328 25.658 51.9144 25.9393 52.1957C26.2206 52.477 26.6022 52.635 27 52.635C27.3978 52.635 27.7794 52.477 28.0607 52.1957C28.342 51.9144 28.5 51.5328 28.5 51.135V45.87C28.5 45.4722 28.342 45.0906 28.0607 44.8093C27.7794 44.528 27.3978 44.37 27 44.37Z" fill="white"/>
<path d="M12.6 14.715C12.887 14.9607 13.2561 15.0892 13.6336 15.0746C14.0111 15.06 14.3692 14.9035 14.6363 14.6363C14.9035 14.3692 15.06 14.0111 15.0746 13.6336C15.0892 13.2561 14.9607 12.887 14.715 12.6L10.995 8.88C10.7081 8.63426 10.3389 8.50585 9.96142 8.52044C9.58391 8.53502 9.2258 8.69152 8.95866 8.95866C8.69152 9.2258 8.53502 9.58391 8.52044 9.96142C8.50585 10.3389 8.63426 10.7081 8.88 10.995L12.6 14.715Z" fill="white"/>
<path d="M41.4 39.285C41.113 39.0393 40.7439 38.9109 40.3664 38.9254C39.9889 38.94 39.6308 39.0965 39.3637 39.3637C39.0965 39.6308 38.94 39.9889 38.9254 40.3664C38.9109 40.7439 39.0393 41.113 39.285 41.4L43.005 45.12C43.292 45.3657 43.6611 45.4941 44.0386 45.4796C44.4161 45.465 44.7742 45.3085 45.0413 45.0413C45.3085 44.7742 45.465 44.4161 45.4796 44.0386C45.4941 43.6611 45.3657 43.292 45.12 43.005L41.4 39.285Z" fill="white"/>
<path d="M9.63001 27C9.63001 26.6022 9.47197 26.2206 9.19067 25.9393C8.90936 25.658 8.52783 25.5 8.13001 25.5H2.86501C2.46718 25.5 2.08565 25.658 1.80435 25.9393C1.52304 26.2206 1.36501 26.6022 1.36501 27C1.36501 27.3978 1.52304 27.7794 1.80435 28.0607C2.08565 28.342 2.46718 28.5 2.86501 28.5H8.13001C8.52783 28.5 8.90936 28.342 9.19067 28.0607C9.47197 27.7794 9.63001 27.3978 9.63001 27Z" fill="white"/>
<path d="M51.135 25.5H45.87C45.4722 25.5 45.0906 25.658 44.8093 25.9393C44.528 26.2206 44.37 26.6022 44.37 27C44.37 27.3978 44.528 27.7794 44.8093 28.0607C45.0906 28.342 45.4722 28.5 45.87 28.5H51.135C51.5328 28.5 51.9144 28.342 52.1957 28.0607C52.477 27.7794 52.635 27.3978 52.635 27C52.635 26.6022 52.477 26.2206 52.1957 25.9393C51.9144 25.658 51.5328 25.5 51.135 25.5Z" fill="white"/>
<path d="M12.6 39.285L8.88 43.005C8.63426 43.292 8.50585 43.6611 8.52044 44.0386C8.53502 44.4161 8.69152 44.7742 8.95866 45.0413C9.2258 45.3085 9.58391 45.465 9.96142 45.4796C10.3389 45.4941 10.7081 45.3657 10.995 45.12L14.715 41.4C14.9607 41.113 15.0892 40.7439 15.0746 40.3664C15.06 39.9889 14.9035 39.6308 14.6363 39.3637C14.3692 39.0965 14.0111 38.94 13.6336 38.9254C13.2561 38.9109 12.887 39.0393 12.6 39.285Z" fill="white"/>
<path d="M41.4 14.715L45.12 10.995C45.3657 10.7081 45.4941 10.3389 45.4796 9.96142C45.465 9.58391 45.3085 9.2258 45.0413 8.95866C44.7742 8.69152 44.4161 8.53502 44.0386 8.52044C43.6611 8.50585 43.292 8.63426 43.005 8.88L39.285 12.6C39.0393 12.887 38.9109 13.2561 38.9254 13.6336C38.94 14.0111 39.0965 14.3692 39.3637 14.6363C39.6308 14.9035 39.9889 15.06 40.3664 15.0746C40.7439 15.0892 41.113 14.9607 41.4 14.715Z" fill="white"/>
<path d="M27 42C35.2843 42 42 35.2843 42 27C42 18.7157 35.2843 12 27 12C18.7157 12 12 18.7157 12 27C12 35.2843 18.7157 42 27 42Z" fill="white"/>
</svg>
